<?xml version="1.0" standalone="no"?><!DOCTYPE svg PUBLIC "-//W3C//DTD SVG 1.1//EN" "http://www.w3.org/Graphics/SVG/1.1/DTD/svg11.dtd"><svg t="1606231496238" class="icon" viewBox="0 0 1024 1024" version="1.1" xmlns="http://www.w3.org/2000/svg" p-id="3198" xmlns:xlink="http://www.w3.org/1999/xlink" width="200" height="200"><defs><style type="text/css"></style></defs><path d="M227.5328 28.4672A199.1168 199.1168 0 0 0 28.4672 227.5328v568.9344a199.1168 199.1168 0 0 0 199.0656 199.0656h568.9344a199.1168 199.1168 0 0 0 199.0656-199.0656V227.5328A199.1168 199.1168 0 0 0 796.4672 28.4672H227.5328z m0-28.4672h568.9344A227.5328 227.5328 0 0 1 1024 227.5328v568.9344A227.5328 227.5328 0 0 1 796.4672 1024H227.5328A227.5328 227.5328 0 0 1 0 796.4672V227.5328A227.5328 227.5328 0 0 1 227.5328 0z" fill="#d81e06" p-id="3199"></path><path d="M563.2 460.8V256a51.2 51.2 0 0 0-102.4 0v204.8H256a51.2 51.2 0 0 0 0 102.4h204.8v204.8a51.2 51.2 0 0 0 102.4 0v-204.8h204.8a51.2 51.2 0 0 0 0-102.4h-204.8z" fill="#d81e06" p-id="3200"></path></svg>