<?xml version="1.0" standalone="no"?><!DOCTYPE svg PUBLIC "-//W3C//DTD SVG 1.1//EN" "http://www.w3.org/Graphics/SVG/1.1/DTD/svg11.dtd"><svg t="1605869712798" class="icon" viewBox="0 0 1024 1024" version="1.1" xmlns="http://www.w3.org/2000/svg" p-id="1085" xmlns:xlink="http://www.w3.org/1999/xlink" width="200" height="200"><defs><style type="text/css"></style></defs><path d="M242.58 633.51l326.18 248.44-63.09-677.23-263.09 185.76-146.82-63.96v349.94" fill="#2b9f28" p-id="1086"></path><path d="M681.25 585.54c-17.43 0-31.56 14.32-31.56 31.98 0 17.67 14.13 31.99 31.56 31.99 74.92 0 135.63-61.55 135.63-137.51 0-75.94-60.71-137.5-135.63-137.5-17.43 0-31.56 14.31-31.56 31.98 0 17.66 14.13 31.98 31.56 31.98 40.07 0 72.53 32.92 72.53 73.54 0 40.63-32.45 73.54-72.53 73.54zM954.93 459.3c-1.74-8.55-3.84-16.9-6.35-25.06-2.5-8.17-5.42-16.19-8.67-24.05a269.92 269.92 0 0 0-10.9-22.91c-3.91-7.33-8.23-14.53-12.91-21.55a255.12 255.12 0 0 0-14.87-20.15 256.195 256.195 0 0 0-16.66-18.57 254.712 254.712 0 0 0-18.28-16.85c-6.33-5.29-12.95-10.29-19.79-15.01-7-4.76-14.05-9.12-21.3-13.11-7.25-4-14.76-7.67-22.52-11.02-7.82-3.35-15.73-6.29-23.77-8.82-8.28-2.59-16.48-4.72-24.74-6.44-17.07-3.56-33.75 7.58-37.25 24.88s7.48 34.21 24.55 37.77c6.26 1.31 12.52 2.93 18.78 4.89 5.96 1.89 11.94 4.1 17.81 6.61 5.83 2.52 11.52 5.3 16.98 8.31 5.51 3.04 10.89 6.35 16.16 9.94a203.66 203.66 0 0 1 14.99 11.37c4.79 3.99 9.38 8.23 13.76 12.69 4.49 4.53 8.67 9.19 12.62 14.05 4 4.91 7.74 9.98 11.24 15.24 3.54 5.31 6.8 10.72 9.75 16.26 3 5.59 5.74 11.36 8.27 17.37 2.44 5.86 4.63 11.92 6.51 18.08 1.89 6.11 3.49 12.43 4.8 18.93 1.31 6.51 2.3 13.01 2.93 19.51 0.68 6.76 1.04 13.54 1.04 20.31 0 6.79-0.36 13.53-1.03 20.22-0.64 6.61-1.63 13.13-2.94 19.6-1.33 6.53-2.91 12.82-4.8 18.93-1.88 6.17-4.08 12.22-6.54 18.16-2.5 5.93-5.24 11.7-8.21 17.22-3.02 5.67-6.27 11.09-9.73 16.26a192 192 0 0 1-11.24 15.24c-3.99 4.92-8.17 9.58-12.57 14.02-4.47 4.55-9.07 8.79-13.86 12.79a194 194 0 0 1-15.03 11.4c-5.22 3.58-10.59 6.87-16.11 9.92-5.58 3.06-11.27 5.84-16.98 8.3-5.87 2.5-11.85 4.72-17.92 6.64-6.17 1.94-12.38 3.57-18.59 4.84-17.07 3.51-28.11 20.39-24.65 37.7 3.46 17.32 20.11 28.49 37.19 24.99 8.32-1.72 16.58-3.86 24.79-6.45 8.07-2.55 15.98-5.49 23.72-8.8 7.61-3.26 15.12-6.93 22.53-10.99 7.37-4.07 14.46-8.44 21.34-13.15 6.85-4.69 13.5-9.73 19.86-15.07 6.35-5.29 12.47-10.94 18.32-16.89 5.79-5.83 11.35-12.06 16.62-18.53 5.23-6.4 10.2-13.14 14.84-20.12 4.61-6.89 8.95-14.14 12.93-21.61 3.91-7.28 7.54-14.9 10.83-22.76 3.3-7.93 6.21-15.95 8.7-24.1 2.52-8.17 4.62-16.52 6.36-25.09 1.75-8.6 3.06-17.31 3.93-26.05 0.88-8.77 1.33-17.67 1.33-26.65 0-8.95-0.45-17.89-1.34-26.72a264.56 264.56 0 0 0-3.93-25.92zM505.67 204.72v614.57L261.1 639.6c-0.13-0.1-0.27-0.17-0.4-0.26-0.51-0.36-1.03-0.7-1.56-1.03-0.36-0.23-0.73-0.47-1.1-0.68-0.52-0.29-1.05-0.56-1.58-0.83-0.41-0.2-0.81-0.41-1.22-0.59-0.5-0.23-1.02-0.42-1.52-0.62-0.47-0.17-0.93-0.36-1.4-0.51-0.47-0.16-0.95-0.28-1.43-0.41-0.53-0.14-1.06-0.3-1.58-0.41-0.45-0.1-0.89-0.17-1.34-0.25-0.59-0.1-1.17-0.21-1.76-0.27-0.42-0.05-0.85-0.07-1.28-0.1-0.62-0.06-1.24-0.08-1.86-0.1-0.16-0.01-0.31-0.03-0.48-0.03H127.3V390.48h115.28c6.65 0 13.13-2.13 18.51-6.09l244.58-179.67zM232.35 697.47L518.7 907.85c20.86 15.32 50.06 0.22 50.06-25.9V142.04c0-26.11-29.2-41.21-50.06-25.89L232.35 326.52H95.76c-17.43 0-31.55 14.31-31.55 31.98v306.99c0 17.67 14.12 31.98 31.55 31.98h136.59z m0 0" fill="#2b9f28" p-id="1087"></path></svg>