<?xml version="1.0" standalone="no"?><!DOCTYPE svg PUBLIC "-//W3C//DTD SVG 1.1//EN" "http://www.w3.org/Graphics/SVG/1.1/DTD/svg11.dtd"><svg t="1605867507320" class="icon" viewBox="0 0 1024 1024" version="1.1" xmlns="http://www.w3.org/2000/svg" p-id="842" xmlns:xlink="http://www.w3.org/1999/xlink" width="200" height="200"><defs><style type="text/css"></style></defs><path d="M503.466667 738.133333l8.533333-315.733333c0-23.466667 27.733333-38.4 49.066667-25.6l268.8 164.266667c21.333333 12.8 19.2 42.666667-2.133334 55.466666l-277.333333 151.466667c-21.333333 10.666667-46.933333-4.266667-46.933333-29.866667z" fill="#29BF88" p-id="843"></path><path d="M445.866667 742.4c-12.8 0-27.733333-4.266667-38.4-10.666667-23.466667-14.933333-36.266667-38.4-36.266667-66.133333l8.533333-315.733333c0-27.733333 14.933333-51.2 38.4-64 23.466667-12.8 51.2-12.8 74.666667 2.133333l268.8 164.266667c23.466667 14.933333 36.266667 38.4 36.266667 66.133333s-14.933333 51.2-38.4 64l-277.333334 151.466667c-12.8 4.266667-23.466667 8.533333-36.266666 8.533333z m10.666666-74.666667z m-42.666666-2.133333z m49.066666-294.4l-6.4 277.333333 243.2-132.266666-236.8-145.066667z" fill="#034B2B" p-id="844"></path><path d="M537.6 966.4C288 966.4 85.333333 763.733333 85.333333 516.266667S288 64 537.6 64s452.266667 202.666667 452.266667 452.266667-202.666667 450.133333-452.266667 450.133333z m0-817.066667C337.066667 149.333333 170.666667 313.6 170.666667 516.266667s164.266667 366.933333 366.933333 366.933333 366.933333-164.266667 366.933333-366.933333S740.266667 149.333333 537.6 149.333333z" fill="#034B2B" p-id="845"></path></svg>