<?xml version="1.0" standalone="no"?><!DOCTYPE svg PUBLIC "-//W3C//DTD SVG 1.1//EN" "http://www.w3.org/Graphics/SVG/1.1/DTD/svg11.dtd"><svg t="1605868634284" class="icon" viewBox="0 0 1024 1024" version="1.1" xmlns="http://www.w3.org/2000/svg" p-id="1104" xmlns:xlink="http://www.w3.org/1999/xlink" width="200" height="200"><defs><style type="text/css"></style></defs><path d="M552.533333 608c-23.466667 0-42.666667-19.2-42.666666-42.666667V270.933333c0-23.466667 19.2-42.666667 42.666666-42.666666s42.666667 19.2 42.666667 42.666666v294.4c0 23.466667-19.2 42.666667-42.666667 42.666667z" fill="#29BF88" p-id="1105"></path><path d="M697.6 757.333333c-10.666667 0-21.333333-4.266667-29.866667-12.8l-145.066666-145.066666c-17.066667-17.066667-17.066667-42.666667 0-59.733334 17.066667-17.066667 42.666667-17.066667 59.733333 0l145.066667 145.066667c17.066667 17.066667 17.066667 42.666667 0 59.733333-8.533333 8.533333-19.2 12.8-29.866667 12.8z" fill="#29BF88" p-id="1106"></path><path d="M512 964.266667C262.4 964.266667 59.733333 761.6 59.733333 512S262.4 59.733333 512 59.733333 964.266667 262.4 964.266667 512 761.6 964.266667 512 964.266667z m0-819.2C309.333333 145.066667 145.066667 309.333333 145.066667 512S309.333333 878.933333 512 878.933333 878.933333 714.666667 878.933333 512 714.666667 145.066667 512 145.066667z" fill="#034B2B" p-id="1107"></path><path d="M509.866667 608c-23.466667 0-42.666667-19.2-42.666667-42.666667V270.933333c0-23.466667 19.2-42.666667 42.666667-42.666666s42.666667 19.2 42.666666 42.666666v294.4c0 23.466667-19.2 42.666667-42.666666 42.666667z" fill="#034B2B" p-id="1108"></path><path d="M654.933333 757.333333c-10.666667 0-21.333333-4.266667-29.866666-12.8l-145.066667-145.066666c-17.066667-17.066667-17.066667-42.666667 0-59.733334 17.066667-17.066667 42.666667-17.066667 59.733333 0l145.066667 145.066667c17.066667 17.066667 17.066667 42.666667 0 59.733333-8.533333 8.533333-19.2 12.8-29.866667 12.8z" fill="#034B2B" p-id="1109"></path></svg>