<?xml version="1.0" standalone="no"?><!DOCTYPE svg PUBLIC "-//W3C//DTD SVG 1.1//EN" "http://www.w3.org/Graphics/SVG/1.1/DTD/svg11.dtd"><svg t="1605867740868" class="icon" viewBox="0 0 1024 1024" version="1.1" xmlns="http://www.w3.org/2000/svg" p-id="842" xmlns:xlink="http://www.w3.org/1999/xlink" width="200" height="200"><defs><style type="text/css"></style></defs><path d="M896 772.266667v21.333333c0 21.333333-23.466667 36.266667-42.666667 25.6l-309.333333-181.333333c-19.2-10.666667-19.2-38.4 0-49.066667L853.333333 405.333333c19.2-10.666667 42.666667 2.133333 42.666667 25.6v341.333334z" fill="#29BF88" p-id="843"></path><path d="M789.333333 851.2c-14.933333 0-29.866667-4.266667-42.666666-12.8L326.4 578.133333c-25.6-14.933333-38.4-42.666667-38.4-72.533333s14.933333-57.6 38.4-72.533333L746.666667 172.8c25.6-14.933333 55.466667-17.066667 81.066666-2.133333 25.6 14.933333 42.666667 42.666667 42.666667 74.666666V768c0 32-17.066667 59.733333-42.666667 74.666667-12.8 6.4-25.6 8.533333-38.4 8.533333z m-4.266666-601.6l-413.866667 256 413.866667 256v-512zM209.066667 851.2c-23.466667 0-42.666667-19.2-42.666667-42.666667V200.533333c0-23.466667 19.2-42.666667 42.666667-42.666666s42.666667 19.2 42.666666 42.666666v608c0 23.466667-19.2 42.666667-42.666666 42.666667z" fill="#034B2B" p-id="844"></path></svg>