<?xml version="1.0" standalone="no"?><!DOCTYPE svg PUBLIC "-//W3C//DTD SVG 1.1//EN" "http://www.w3.org/Graphics/SVG/1.1/DTD/svg11.dtd"><svg t="1606039133183" class="icon" viewBox="0 0 1047 1024" version="1.1" xmlns="http://www.w3.org/2000/svg" p-id="15682" xmlns:xlink="http://www.w3.org/1999/xlink" width="204.4921875" height="200"><defs><style type="text/css"></style></defs><path d="M418.699636 2.001455L517.818182 0l98.117818 2.001455c222.045091 4.561455 401.966545 181.620364 410.065455 403.572363l3.816727 105.239273-3.909818 107.124364c-8.052364 221.184-186.786909 397.940364-408.040728 403.54909L517.818182 1024l-101.050182-2.536727C193.768727 1015.877818 14.266182 836.538182 8.471273 613.538909L5.818182 510.836364l2.606545-100.840728C14.242909 186.205091 194.909091 6.539636 418.722909 2.001455z" fill="#F05543" p-id="15683"></path><path d="M541.021091 256c-141.312 0-255.906909 114.594909-255.906909 256s114.594909 256 255.906909 256 255.883636-114.618182 255.883636-256-114.501818-256-255.883636-256z m0 471.598545c-118.923636 0-215.505455-96.488727-215.505455-215.598545 0-119.109818 96.488727-215.598545 215.505455-215.598545 118.993455 0 215.505455 96.488727 215.505454 215.598545a215.412364 215.412364 0 0 1-215.505454 215.598545z" fill="#FFFFFF" p-id="15684"></path><path d="M543.906909 384.186182a127.953455 127.953455 0 0 0-127.906909 127.906909 127.953455 127.953455 0 0 0 218.344727 90.437818 127.883636 127.883636 0 0 0-90.437818-218.344727z m72.308364 155.717818h-77.824a11.170909 11.170909 0 0 1-11.101091-11.101091v-77.800727a11.170909 11.170909 0 0 1 11.124363-11.124364 11.170909 11.170909 0 0 1 11.101091 11.124364v66.699636h66.699637a11.170909 11.170909 0 0 1 11.101091 11.101091 11.170909 11.170909 0 0 1-11.101091 11.101091z" fill="#FFFFFF" p-id="15685"></path></svg>