<?xml version="1.0" standalone="no"?><!DOCTYPE svg PUBLIC "-//W3C//DTD SVG 1.1//EN" "http://www.w3.org/Graphics/SVG/1.1/DTD/svg11.dtd"><svg t="1606362224525" class="icon" viewBox="0 0 1024 1024" version="1.1" xmlns="http://www.w3.org/2000/svg" p-id="9652" xmlns:xlink="http://www.w3.org/1999/xlink" width="200" height="200"><defs><style type="text/css"></style></defs><path d="M954.24 84.48a56.96 56.96 0 0 0-35.2-19.2 25.6 25.6 0 0 0-30.72 15.36l-128 239.36-3.84 7.68 103.04 45.44a21.12 21.12 0 0 1 0-3.84c31.36-87.68 64-175.36 95.36-263.04a23.68 23.68 0 0 0-0.64-21.76z m-99.2 341.12c-43.52-20.48-87.04-39.68-128-58.88a106.24 106.24 0 0 0-99.84 6.4 101.12 101.12 0 0 0-42.24 48.64l328.32 145.92 4.48-12.8a106.24 106.24 0 0 0-62.72-129.28z m-30.72 177.28l-3.2 8.96c-9.6 26.24-19.2 53.12-29.44 79.36a1063.04 1063.04 0 0 1-100.48 192 11.52 11.52 0 0 1-13.44 6.4l-60.16-10.24-33.28-7.04a576 576 0 0 0 72.32-128l-16 14.72A428.16 428.16 0 0 1 535.68 832a71.68 71.68 0 0 1-69.12 0c-17.92-10.24-37.76-18.56-56.96-28.8a272 272 0 0 0 55.04-76.8A200.96 200.96 0 0 1 371.2 768a16.64 16.64 0 0 1-13.44 0c-17.28-12.8-34.56-25.6-51.2-39.68s-17.28-15.36-26.88-24.32h5.76a583.68 583.68 0 0 0 192-64A330.24 330.24 0 0 0 582.4 552.96c11.52-14.72 21.76-30.72 32.64-46.72l-60.16-33.92c-9.6 14.08-18.56 28.16-28.8 40.96a326.4 326.4 0 0 1-137.6 90.88 512 512 0 0 1-180.48 35.84 32.64 32.64 0 0 0-32 19.84 35.2 35.2 0 0 0 5.76 39.04 704 704 0 0 0 304.64 213.12 776.32 776.32 0 0 0 204.16 47.36 42.88 42.88 0 0 0 43.52-18.56c4.48-7.04 9.6-13.44 14.08-19.84a1137.28 1137.28 0 0 0 128-262.4c4.48-10.88 7.68-21.76 11.52-33.28z" fill="#d81e06" p-id="9653"></path><path d="M167.68 256a52.48 52.48 0 0 1-51.2 51.84A53.76 53.76 0 0 1 64 256a52.48 52.48 0 0 1 52.48-51.84 51.2 51.2 0 0 1 51.2 51.84zM305.92 270.08a34.56 34.56 0 1 1-34.56-34.56 34.56 34.56 0 0 1 34.56 34.56zM340.48 460.8A86.4 86.4 0 1 1 256 373.12 87.04 87.04 0 0 1 340.48 460.8z" fill="#d81e06" opacity=".2" p-id="9654"></path></svg>