<?xml version="1.0" standalone="no"?><!DOCTYPE svg PUBLIC "-//W3C//DTD SVG 1.1//EN" "http://www.w3.org/Graphics/SVG/1.1/DTD/svg11.dtd"><svg t="1606043558743" class="icon" viewBox="0 0 1024 1024" version="1.1" xmlns="http://www.w3.org/2000/svg" p-id="9250" xmlns:xlink="http://www.w3.org/1999/xlink" width="200" height="200"><defs><style type="text/css"></style></defs><path d="M213.4016 90.112c15.68768 0 29.4912 3.3792 40.96 9.6256 11.4688 6.22592 20.60288 15.36 26.8288 26.8288 6.2464 11.4688 9.6256 25.27232 9.6256 40.96v248.48384l470.56896-306.3808a81.92 81.92 0 0 1 39.424-13.08672l5.28384-0.16384a81.92 81.92 0 0 1 81.92 81.92v673.73056a81.92 81.92 0 0 1-126.62784 68.64896L290.816 614.2976v270.31552c0 15.68768-3.3792 29.4912-9.6256 40.96a66.2528 66.2528 0 0 1-26.8288 26.8288c-11.4688 6.2464-25.27232 9.6256-40.96 9.6256s-29.4912-3.3792-40.96-9.6256a66.2528 66.2528 0 0 1-26.8288-26.8288c-6.2464-11.4688-9.6256-25.27232-9.6256-40.96V167.5264c0-15.68768 3.3792-29.4912 9.6256-40.96 6.22592-11.4688 15.36-20.60288 26.8288-26.8288 11.4688-6.2464 25.27232-9.6256 40.96-9.6256z" fill="#d81e06" opacity=".94" p-id="9251"></path></svg>