<?xml version="1.0" standalone="no"?><!DOCTYPE svg PUBLIC "-//W3C//DTD SVG 1.1//EN" "http://www.w3.org/Graphics/SVG/1.1/DTD/svg11.dtd"><svg t="1606038693142" class="icon" viewBox="0 0 1024 1024" version="1.1" xmlns="http://www.w3.org/2000/svg" p-id="9149" xmlns:xlink="http://www.w3.org/1999/xlink" width="200" height="200"><defs><style type="text/css"></style></defs><path d="M907.264 55.416471c58.910118 0 107.098353 48.188235 107.098353 107.098353v749.568c0 58.910118-48.188235 107.098353-107.098353 107.098352H157.696c-58.910118 0-107.098353-48.188235-107.098353-107.098352V162.514824C50.597647 103.604706 98.785882 55.416471 157.696 55.416471zM393.938824 286.72c-19.275294 0-34.936471 15.841882-34.936471 35.358118v430.441411c0 7.047529 2.048 13.914353 5.963294 19.757177 10.782118 16.203294 32.527059 20.48 48.489412 9.577412l315.632941-215.220706a35.599059 35.599059 0 0 0 0-58.608941L413.455059 292.743529a34.635294 34.635294 0 0 0-19.516235-6.023529z" fill="#d81e06" fill-opacity=".8" p-id="9150"></path></svg>