<?xml version="1.0" standalone="no"?><!DOCTYPE svg PUBLIC "-//W3C//DTD SVG 1.1//EN" "http://www.w3.org/Graphics/SVG/1.1/DTD/svg11.dtd"><svg t="1606043751672" class="icon" viewBox="0 0 1024 1024" version="1.1" xmlns="http://www.w3.org/2000/svg" p-id="15279" xmlns:xlink="http://www.w3.org/1999/xlink" width="200" height="200"><defs><style type="text/css"></style></defs><path d="M512 512m-512 0a512 512 0 1 0 1024 0 512 512 0 1 0-1024 0Z" fill="#CC0202" p-id="15280"></path><path d="M358.4 238.933333c46.933333 0 68.266667 21.333333 68.266667 68.266667v405.333333c0 46.933333-21.333333 68.266667-68.266667 68.266667s-68.266667-21.333333-68.266667-68.266667V307.2c0-42.666667 21.333333-68.266667 68.266667-68.266667zM665.6 238.933333c46.933333 0 68.266667 21.333333 68.266667 68.266667v405.333333c0 46.933333-21.333333 68.266667-68.266667 68.266667s-68.266667-21.333333-68.266667-68.266667V307.2c0-42.666667 21.333333-68.266667 68.266667-68.266667z" fill="#FFFFFF" p-id="15281"></path></svg>