<?xml version="1.0" standalone="no"?><!DOCTYPE svg PUBLIC "-//W3C//DTD SVG 1.1//EN" "http://www.w3.org/Graphics/SVG/1.1/DTD/svg11.dtd"><svg t="1606232371110" class="icon" viewBox="0 0 1024 1024" version="1.1" xmlns="http://www.w3.org/2000/svg" p-id="4061" xmlns:xlink="http://www.w3.org/1999/xlink" width="200" height="200"><defs><style type="text/css"></style></defs><path d="M224.699733 108.7488L170.666667 136.669867V512h716.8l16.4864-29.764267zM224.699733 915.2512L170.666667 887.330133V512h716.8l16.4864 29.764267z" fill="#ffffff" p-id="4062"></path><path d="M887.466667 512m-34.133334 0a34.133333 34.133333 0 1 0 68.266667 0 34.133333 34.133333 0 1 0-68.266667 0Z" fill="#ffffff" p-id="4063"></path><path d="M204.8 136.533333m-34.133333 0a34.133333 34.133333 0 1 0 68.266666 0 34.133333 34.133333 0 1 0-68.266666 0Z" fill="#ffffff" p-id="4064"></path><path d="M204.8 887.466667m-34.133333 0a34.133333 34.133333 0 1 0 68.266666 0 34.133333 34.133333 0 1 0-68.266666 0Z" fill="#ffffff" p-id="4065"></path></svg>