<?xml version="1.0" standalone="no"?><!DOCTYPE svg PUBLIC "-//W3C//DTD SVG 1.1//EN" "http://www.w3.org/Graphics/SVG/1.1/DTD/svg11.dtd"><svg t="1606399923424" class="icon" viewBox="0 0 1024 1024" version="1.1" xmlns="http://www.w3.org/2000/svg" p-id="2628" xmlns:xlink="http://www.w3.org/1999/xlink" width="200" height="200"><defs><style type="text/css"></style></defs><path d="M624.5 376.8c52-53.3 124.6-83.8 199.1-83.8h107.9l-156 156.1 38.4 38.4 202.3-202.3c10.6-10.6 10.6-27.8 0-38.4l-199-198.9-38.4 38.4 152.5 152.5H823.6c-89 0-175.7 36.5-237.9 100.2l-300 307c-52 53.3-124.6 83.8-199.1 83.8H27.1c-15 0-27.1 12.1-27.1 27.1 0 15 12.1 27.1 27.1 27.1h59.6c89 0 175.7-36.5 237.9-100.1l299.9-307.1z" fill="#E9554C" p-id="2629"></path><path d="M27.1 294.2h59.6c74.5 0 147 30.6 199.1 83.8l93 95.2 37.9-38.8-92.2-94.3C262.4 276.5 175.7 240 86.7 240H27.1C12.1 240 0 252.1 0 267.1c0 15 12.1 27.1 27.1 27.1zM813.8 536.6L775.4 575l156 156.1H823.6c-74.5 0-147-30.6-199.1-83.8L530.4 551l-37.9 38.8 93.2 95.4c62.2 63.6 148.9 100.2 237.9 100.2h107.7L778.8 937.7l38.4 38.4 198.9-198.9c10.6-10.6 10.6-27.8 0-38.4L813.8 536.6z" fill="#E9554C" p-id="2630"></path></svg>