<?xml version="1.0" standalone="no"?><!DOCTYPE svg PUBLIC "-//W3C//DTD SVG 1.1//EN" "http://www.w3.org/Graphics/SVG/1.1/DTD/svg11.dtd"><svg t="1606388762784" class="icon" viewBox="0 0 1024 1024" version="1.1" xmlns="http://www.w3.org/2000/svg" p-id="3524" xmlns:xlink="http://www.w3.org/1999/xlink" width="200" height="200"><defs><style type="text/css"></style></defs><path d="M424.5 192C206.071 192 29 369.071 29 587.5c0 216.244 173.548 391.954 388.96 395.447l6.54 0.053H612c211.525 0 383-171.475 383-383 0-18.225-14.775-33-33-33-18.043 0-32.704 14.48-32.996 32.454L929 600c0 173.324-139.101 314.158-311.758 316.958L612 917H424.5C242.522 917 95 769.478 95 587.5c0-180.158 144.586-326.546 324.051-329.456L424.5 258H812c18.225 0 33-14.775 33-33 0-18.043-14.48-32.704-32.454-33H424.5z" fill="#d81e06" p-id="3525"></path><path d="M803.27 110.374l111.585 95.645c10.483 8.985 11.697 24.768 2.712 35.25a25 25 0 0 1-2.712 2.712L803.27 339.626c-10.483 8.985-26.266 7.771-35.251-2.712a25 25 0 0 1-6.019-16.27V129.356c0-13.808 11.193-25 25-25a25 25 0 0 1 16.27 6.018zM567.889 762.867v-332.09c0-17.672-14.327-32-32-32h-16.456a51 51 0 0 0-28.446 8.67l-70.528 47.396c-13.522 9.086-18.777 26.437-12.57 41.5 4.929 11.96 18.62 17.66 30.58 12.73a23.422 23.422 0 0 0 3.682-1.914l51.318-32.772a4 4 0 0 1 6.153 3.371v285.109c0 18.851 15.282 34.133 34.134 34.133 18.85 0 34.133-15.282 34.133-34.133z" fill="#d81e06" p-id="3526"></path></svg>