<?xml version="1.0" standalone="no"?><!DOCTYPE svg PUBLIC "-//W3C//DTD SVG 1.1//EN" "http://www.w3.org/Graphics/SVG/1.1/DTD/svg11.dtd"><svg t="1605710411759" class="icon" viewBox="0 0 1024 1024" version="1.1" xmlns="http://www.w3.org/2000/svg" p-id="2568" xmlns:xlink="http://www.w3.org/1999/xlink" width="200" height="200"><defs><style type="text/css"></style></defs><path d="M391.528668 542.117931a240.941035 240.941035 0 1 1 0 481.882069 240.941035 240.941035 0 0 1 0-481.882069z m0 120.470517a120.470517 120.470517 0 1 0 0 240.941035 120.470517 120.470517 0 0 0 0-240.941035z" fill="#000000" p-id="2569"></path><path d="M632.469702 180.706378l144.564621 108.423466a60.235259 60.235259 0 1 0 72.282311-96.376414l-240.941035-180.705776A60.235259 60.235259 0 0 0 511.999185 60.235861v722.823104a60.235259 60.235259 0 0 0 120.470517 0V180.706378z" fill="#000000" p-id="2570"></path></svg>