<?xml version="1.0" standalone="no"?><!DOCTYPE svg PUBLIC "-//W3C//DTD SVG 1.1//EN" "http://www.w3.org/Graphics/SVG/1.1/DTD/svg11.dtd"><svg t="1606037897016" class="icon" viewBox="0 0 1024 1024" version="1.1" xmlns="http://www.w3.org/2000/svg" p-id="6033" xmlns:xlink="http://www.w3.org/1999/xlink" width="200" height="200"><defs><style type="text/css"></style></defs><path d="M696.149333 688.981333a32 32 0 0 1-31.274666-55.850666A138.581333 138.581333 0 0 0 736 512a138.581333 138.581333 0 0 0-70.186667-120.618667 32 32 0 0 1 31.658667-55.637333A202.581333 202.581333 0 0 1 800 512c0 74.24-40.277333 141.44-103.850667 176.981333z" fill="#d81e06" opacity=".3" p-id="6034"></path><path d="M298.666667 682.666667l-144.725334-28.928A85.333333 85.333333 0 0 1 85.333333 570.026667v-116.053334a85.333333 85.333333 0 0 1 68.608-83.712L298.666667 341.333333l140.501333-140.501333A42.666667 42.666667 0 0 1 512 230.997333v562.005334a42.666667 42.666667 0 0 1-72.832 30.165333L298.666667 682.666667z" fill="#d81e06" p-id="6035"></path></svg>